HIERARCHY
ROOT hip
{
	OFFSET 0.000000 0.000000 0.000000
	CHANNELS 6 Xposition Yposition Zposition Zrotation Yrotation Xrotation 
	JOINT lhipjoint
	{
		OFFSET 0.000000 0.000000 0.000000
		CHANNELS 3 Zrotation Yrotation Xrotation
		JOINT lfemur
		{
			OFFSET 1.363060 -1.794630 0.839290
			CHANNELS 3 Zrotation Yrotation Xrotation
			JOINT ltibia
			{
				OFFSET 2.448110 -6.726130 0.000000
				CHANNELS 3 Zrotation Yrotation Xrotation
				JOINT lfoot
				{
					OFFSET 2.562200 -7.039590 0.000000
					CHANNELS 3 Zrotation Yrotation Xrotation
					JOINT ltoes
					{
						OFFSET 0.157640 -0.433110 2.322550
						CHANNELS 3 Zrotation Yrotation Xrotation
						End Site
						{
							OFFSET 0.000000 0.000000 0.000000
						}
					}
				}
			}
		}
	}
	JOINT rhipjoint
	{
		OFFSET 0.000000 0.000000 0.000000
		CHANNELS 3 Zrotation Yrotation Xrotation
		JOINT rfemur
		{
			OFFSET -1.305520 -1.794630 0.839290
			CHANNELS 3 Zrotation Yrotation Xrotation
			JOINT rtibia
			{
				OFFSET -2.542530 -6.985550 0.000000
				CHANNELS 3 Zrotation Yrotation Xrotation
				JOINT rfoot
				{
					OFFSET -2.568260 -7.056230 0.000000
					CHANNELS 3 Zrotation Yrotation Xrotation
					JOINT rtoes
					{
						OFFSET -0.164730 -0.452590 2.363150
						CHANNELS 3 Zrotation Yrotation Xrotation
						End Site
						{
							OFFSET 0.000000 0.000000 0.000000
						}
					}
				}
			}
		}
	}
	JOINT lowerback
	{
		OFFSET 0.000000 0.000000 0.000000
		CHANNELS 3 Zrotation Yrotation Xrotation
		JOINT upperback
		{
			OFFSET 0.028270 2.035590 -0.193380
			CHANNELS 3 Zrotation Yrotation Xrotation
			JOINT thorax
			{
				OFFSET 0.056720 2.048850 -0.042750
				CHANNELS 3 Zrotation Yrotation Xrotation
				JOINT lowerneck
				{
					OFFSET 0.000000 0.000000 0.000000
					CHANNELS 3 Zrotation Yrotation Xrotation
					JOINT upperneck
					{
						OFFSET -0.054170 1.746240 0.172020
						CHANNELS 3 Zrotation Yrotation Xrotation
						JOINT head
						{
							OFFSET 0.104070 1.761360 -0.123970
							CHANNELS 3 Zrotation Yrotation Xrotation
							End Site
							{
								OFFSET 0.000000 0.000000 0.000000
							}
						}
					}
				}
				JOINT lclavicle
				{
					OFFSET 0.000000 0.000000 0.000000
					CHANNELS 3 Zrotation Yrotation Xrotation
					JOINT lhumerus
					{
						OFFSET 3.362410 1.200890 -0.311210
						CHANNELS 3 Zrotation Yrotation Xrotation
						JOINT lradius
						{
							OFFSET 4.983000 -0.000000 -0.000000
							CHANNELS 3 Zrotation Yrotation Xrotation
							JOINT lwrist
							{
								OFFSET 3.483560 -0.000000 -0.000000
								CHANNELS 3 Zrotation Yrotation Xrotation
								JOINT lhand
								{
									OFFSET 0.000000 0.000000 0.000000
									CHANNELS 3 Zrotation Yrotation Xrotation
									JOINT lfingers
									{
										OFFSET 0.715260 -0.000000 -0.000000
										CHANNELS 3 Zrotation Yrotation Xrotation
										End Site
										{
											OFFSET 0.000000 0.000000 0.000000
										}
									}
								}
								JOINT lthumb
								{
									OFFSET 0.000000 0.000000 0.000000
									CHANNELS 3 Zrotation Yrotation Xrotation
									End Site
									{
										OFFSET 0.000000 0.000000 0.000000
									}
								}
							}
						}
					}
				}
				JOINT rclavicle
				{
					OFFSET 0.000000 0.000000 0.000000
					CHANNELS 3 Zrotation Yrotation Xrotation
					JOINT rhumerus
					{
						OFFSET -3.136600 1.374050 -0.404650
						CHANNELS 3 Zrotation Yrotation Xrotation
						JOINT rradius
						{
							OFFSET -5.241900 -0.000000 -0.000000
							CHANNELS 3 Zrotation Yrotation Xrotation
							JOINT rwrist
							{
								OFFSET -3.444170 -0.000000 -0.000000
								CHANNELS 3 Zrotation Yrotation Xrotation
								JOINT rhand
								{
									OFFSET 0.000000 0.000000 0.000000
									CHANNELS 3 Zrotation Yrotation Xrotation
									JOINT rfingers
									{
										OFFSET -0.622530 -0.000000 -0.000000
										CHANNELS 3 Zrotation Yrotation Xrotation
										End Site
										{
											OFFSET 0.000000 0.000000 0.000000
										}
									}
								}
								JOINT rthumb
								{
									OFFSET 0.000000 0.000000 0.000000
									CHANNELS 3 Zrotation Yrotation Xrotation
									End Site
									{
										OFFSET 0.000000 0.000000 0.000000
									}
								}
							}
						}
					}
				}
			}
		}
	}
}
MOTION
Frames: 10
Frame Time: 0.008333
-4.006382 15.329798 -13.378418 162.339299 60.669662 147.766991 -2.725198 2.702194 1.612343 -3.053010 13.828657 -23.397903 9.838346 17.752885 59.481776 2.191837 -11.803435 -3.118203 2.110600 -9.092700 -26.085600 -2.342617 -3.890968 1.981222 -0.600404 33.292907 17.926350 -6.994135 -15.606908 47.225464 7.097645 -30.856379 -2.405072 -2.354900 9.569200 -27.592800 21.004109 -14.138556 9.804784 6.140198 -13.651985 -2.548239 11.528042 -4.515233 5.419067 4.974183 7.532275 5.761665 -15.697337 12.199311 11.842002 -5.741900 6.298200 3.340100 0.266461 3.196186 0.825504 -56.138991 1.135073 9.614226 19.614483 -41.259337 -8.326697 -0.592899 0.197175 179.657175 20.954082 6.511729 2.500500 -7.125000 0.000000 0.000000 -5.437400 37.134100 1.056200 5.390869 -0.396696 3.024751 29.831352 -12.877404 -35.440014 -127.971637 52.790845 -92.050108 0.534125 -0.679521 -171.877085 -20.231412 7.339474 -2.391000 7.125000 0.000000 0.000000 5.253900 -22.846700 2.813200 
-4.035695 15.273222 -13.577666 162.347659 59.973908 147.458147 -2.790849 2.706523 1.621906 -3.767472 13.554677 -23.552574 10.295326 17.942824 60.921171 2.269564 -12.346376 -3.666939 1.924200 -8.706500 -24.881300 -2.334412 -3.895515 2.001550 -0.447000 33.336304 18.211105 -7.396417 -15.900199 48.498332 7.544239 -32.471386 -1.984671 -2.130100 9.131900 -26.208900 21.081568 -14.191500 9.794889 6.210101 -13.636519 -2.587678 11.868641 -4.496283 5.293104 4.456260 7.235764 5.899853 -15.861439 11.837655 11.845664 -5.713000 6.116200 3.240700 0.371659 3.163482 0.865176 -57.632252 2.786362 6.828975 18.861156 -40.551700 -8.009707 -0.629959 0.294504 -178.257942 20.579856 5.686836 2.175500 -7.125000 0.000000 0.000000 -5.707600 36.319700 1.223100 5.321626 -0.357719 2.889208 31.689885 -11.761081 -40.312514 -130.801811 51.678138 -94.573106 0.494423 -0.747812 -172.928692 -18.272037 8.616740 -2.518800 7.125000 0.000000 0.000000 6.637700 -21.685700 3.739800 
-4.065521 15.216645 -13.775479 162.432805 59.263805 147.208638 -2.856159 2.711824 1.633265 -4.459925 13.271574 -23.670460 10.752392 18.117956 62.335918 2.353405 -12.885730 -4.303582 1.759100 -8.345300 -23.767700 -2.329842 -3.894274 2.028128 -0.322028 33.227492 18.456147 -7.760023 -16.147597 49.656738 7.904048 -33.729355 -1.748117 -2.024300 8.916600 -25.534700 21.184912 -14.246418 9.782355 6.283556 -13.614304 -2.633821 12.223119 -4.473346 5.126253 3.941369 6.914881 6.144040 -16.075748 11.449318 11.794670 -5.705700 5.931500 3.098500 0.474569 3.133027 0.903837 -59.103478 4.401849 4.155518 18.282721 -39.974360 -7.781256 -0.656050 0.392622 -176.546595 20.316733 4.465004 1.734100 -7.125000 0.000000 0.000000 -5.838700 35.097600 1.426100 5.255679 -0.316645 2.768625 33.389242 -10.469896 -45.053426 -133.474379 50.488156 -96.866281 0.454716 -0.796495 -174.244326 -16.076396 9.201549 -2.340300 7.125000 0.000000 0.000000 8.177100 -21.252100 4.704200 
-4.097499 15.154021 -13.965913 162.511004 58.539846 146.910008 -2.919349 2.721685 1.646016 -5.129633 13.018912 -23.736011 11.208421 18.280333 63.727731 2.444515 -13.469945 -4.964175 1.628200 -8.044400 -22.849100 -2.328052 -3.888894 2.058812 -0.171581 33.037318 18.781123 -8.079215 -16.354225 50.677290 8.226797 -34.808318 -1.679642 -2.038500 8.945900 -25.626200 21.237420 -14.291092 9.846252 6.352466 -13.549198 -2.683605 12.619802 -4.434896 4.908032 3.380114 6.578120 6.424185 -16.289486 11.036376 11.744591 -5.689300 5.736600 2.948500 0.580792 3.095615 0.940100 -60.565586 5.874008 1.506513 17.747679 -39.414835 -7.563669 -0.677484 0.488540 -174.999040 20.241206 3.309566 1.342100 -7.125000 0.000000 0.000000 -5.828400 33.955200 1.586000 5.184470 -0.277993 2.649458 35.112442 -8.921750 -49.784590 -136.091929 49.166642 -99.068315 0.416877 -0.834029 -175.653886 -13.642841 9.784453 -2.091100 7.125000 0.000000 0.000000 9.866900 -20.819600 5.800900 
-4.128554 15.090065 -14.154296 162.600917 57.828200 146.665173 -2.981393 2.726928 1.651662 -5.796871 12.788375 -23.811109 11.654068 18.426556 65.071099 2.535042 -14.027823 -5.629338 1.513700 -7.769700 -22.016900 -2.328952 -3.881923 2.088600 -0.026165 32.769264 19.109655 -8.347697 -16.518416 51.533086 8.506580 -35.712157 -1.680067 -2.111500 9.094600 -26.091600 21.358634 -14.253130 9.799463 6.405656 -13.428019 -2.722849 12.889344 -4.359030 4.744730 2.940546 6.206876 6.671577 -16.523019 10.585702 11.714617 -5.698600 5.525400 2.815400 0.685320 3.067675 0.975268 -61.896265 7.311519 -0.571513 17.300256 -38.956851 -7.365565 -0.695285 0.559250 -175.123877 19.806116 2.429446 1.029000 -7.125000 0.000000 0.000000 -6.127500 33.087200 1.797600 5.112570 -0.239816 2.532472 36.883563 -7.135553 -54.526351 -138.599787 47.734996 -101.180747 0.374343 -0.855664 -177.149177 -10.771583 11.047899 -1.855600 7.125000 0.000000 0.000000 11.801200 -19.709000 7.284800 
-4.157355 15.025802 -14.340323 162.616769 57.168309 146.382549 -3.040415 2.731789 1.649737 -6.464804 12.649574 -23.861791 12.091436 18.558977 66.369514 2.636535 -14.655843 -6.338728 1.402300 -7.490800 -21.177800 -2.334829 -3.870564 2.116573 0.068771 32.449932 19.444588 -8.566023 -16.652267 52.254073 8.747207 -36.422798 -1.928275 -2.035600 8.939900 -25.607400 21.508340 -14.108621 9.691254 6.429616 -13.215244 -2.750317 13.008644 -4.234616 4.620391 2.657334 5.786619 6.843049 -16.758789 10.081585 11.771824 -5.735800 5.284500 2.733500 0.782447 3.042035 1.004996 -63.047502 8.808132 -2.040974 16.917068 -38.593093 -7.180362 -0.714369 0.599321 -176.953818 18.983540 1.970737 0.850300 -7.125000 0.000000 0.000000 -6.759500 32.646200 2.057600 5.049736 -0.207863 2.422351 38.437255 -5.177776 -59.148933 -140.930495 46.289457 -103.097620 0.324417 -0.855504 -178.795822 -8.415036 12.474352 -1.637600 7.125000 0.000000 0.000000 13.313500 -18.410300 8.664300 
-4.182261 14.965843 -14.524094 162.636730 56.546675 146.099640 -3.099106 2.740598 1.649833 -7.100643 12.575354 -23.843884 12.504788 18.673113 67.579842 2.739554 -15.286726 -7.046865 1.320100 -7.276900 -20.538500 -2.347097 -3.854009 2.148247 0.107520 31.957843 19.737746 -8.739004 -16.748350 52.855079 8.945730 -36.922651 -2.477243 -1.832900 8.509000 -24.271000 21.635906 -13.955327 9.555002 6.466018 -12.993743 -2.775225 13.218696 -4.108985 4.517219 2.234045 5.366110 7.106713 -17.011003 9.573498 11.793666 -5.747600 5.046900 2.610300 0.872907 3.024437 1.039649 -64.348605 10.446529 -3.489599 16.608635 -38.327794 -7.025627 -0.744039 0.631969 -179.115892 18.348109 1.880385 0.808800 -7.125000 0.000000 0.000000 -7.274600 32.597400 2.225100 5.008911 -0.180748 2.314546 39.429281 -3.071613 -63.459046 -143.070416 44.845752 -104.822348 0.256886 -0.827671 179.444647 -6.095254 14.747976 -1.411100 7.125000 0.000000 0.000000 14.696300 -16.273000 10.338800 
-4.205630 14.906089 -14.704176 162.597941 55.958533 145.794646 -3.157971 2.747274 1.644506 -7.741445 12.543632 -23.791749 12.900021 18.771187 68.725101 2.842752 -15.956709 -7.716810 1.203800 -6.961000 -19.599900 -2.366088 -3.830130 2.178348 0.050657 31.339498 19.946289 -8.876852 -16.821654 53.402509 9.103732 -37.182125 -3.594623 -1.546000 7.848300 -22.254200 21.752539 -13.739672 9.352800 6.492028 -12.732453 -2.784039 13.375197 -3.963941 4.503713 1.855800 4.936499 7.285683 -17.257106 9.057689 11.855664 -5.758600 4.800200 2.519700 0.955146 3.015221 1.074109 -65.618692 12.119074 -4.718363 16.434795 -38.218359 -6.933662 -0.778015 0.655930 178.412113 18.002339 1.914517 0.820500 -7.125000 0.000000 0.000000 -7.566300 32.684100 2.299700 4.980735 -0.160670 2.209672 40.283912 -0.887233 -67.452901 -145.211246 43.256337 -106.499795 0.172347 -0.772004 177.478320 -3.158443 17.346896 -0.861900 7.125000 0.000000 0.000000 16.403400 -13.847400 12.535700 
-4.227153 14.848590 -14.881900 162.560273 55.389398 145.512265 -3.217988 2.750451 1.634971 -8.381379 12.490230 -23.695518 13.275038 18.852413 69.797229 2.946783 -16.624648 -8.396344 1.085400 -6.621400 -18.598500 -2.385255 -3.804809 2.204054 -0.014445 30.625208 20.117085 -8.997390 -16.877865 53.916553 9.243685 -37.356522 -5.003217 -1.292900 7.204400 -20.322500 21.888482 -13.458120 9.072263 6.509417 -12.426844 -2.779707 13.481835 -3.793762 4.559897 1.467981 4.471830 7.450246 -17.478875 8.492695 11.908011 -5.749800 4.528500 2.416500 1.026667 3.018173 1.107102 -66.839673 13.724755 -5.697979 16.379559 -38.245691 -6.895052 -0.814072 0.674198 175.783415 17.996252 1.936766 0.845100 -7.125000 0.000000 0.000000 -7.581300 32.767600 2.288900 4.962686 -0.141045 2.111152 41.017206 1.261728 -71.187838 -147.286816 41.551845 -108.070348 0.074312 -0.682307 174.901268 1.020323 19.987480 0.341900 7.125000 0.000000 0.000000 18.793500 -11.414300 15.587000 
-4.247345 14.790886 -15.053885 162.514288 54.901420 145.213551 -3.274211 2.754348 1.622670 -8.956753 12.510763 -23.560164 13.631757 18.925859 70.806278 3.049737 -17.300241 -9.056951 0.953100 -6.217100 -17.415700 -2.401836 -3.780858 2.220692 -0.050602 29.889866 20.252444 -9.118789 -16.930489 54.453027 9.347843 -37.436123 -6.609060 -1.118000 6.717000 -18.879600 22.048100 -13.114198 8.803165 6.518933 -12.038773 -2.760901 13.571803 -3.582146 4.655910 1.062176 3.982102 7.542233 -17.667152 7.895172 12.010111 -5.716900 4.231900 2.343400 1.089662 3.020372 1.135387 -67.979806 15.245364 -6.354255 16.360404 -38.336263 -6.862645 -0.855612 0.683905 173.014455 18.475761 2.067307 0.929900 -7.125000 0.000000 0.000000 -7.216400 32.977200 2.140400 4.957554 -0.124300 2.013219 41.668048 3.369200 -74.670920 -149.244483 39.774563 -109.486265 -0.029867 -0.557775 171.728311 6.699715 22.292434 2.451100 7.125000 0.000000 0.000000 21.942300 -9.260000 19.667600 
